# xmcd CD database file
#
# Track frame offsets:
#	150
#	17630
#	37187
#	56332
#	74870
#	94560
#	111542
#	128512
#	146047
#	165202
#	187622
#	208947
#	230210
#	249047
#	268205
#
# Disc length: 3805 seconds
#
# Revision: 0
# Processed by: cddbd v1.5PL3 Copyright (c) Steve Scherf et al.
# Submitted via: CDex 1.51
#
DISCID=d60edb0f
DTITLE=いろいろ - NEW MUSIC BEST COLLECTION 13
DYEAR=1992
DGENRE=JPop
TTITLE0=竹内まりや - リンダ
TTITLE1=竹内まりや - 不思議なピーチパイ
TTITLE2=NORMA JEAN - GET A CHANCE!!
TTITLE3=NORMA JEAN - バカンス
TTITLE4=オルケスタ・デ・ラ・ルス - I AM A PIANO
TTITLE5=竹内まりや - ドリーム・オブ・ユー〜レモンライムの青い風
TTITLE6=竹内まりや - Special Delivery〜特別航空便〜
TTITLE7=EPO - くちびる・ヌード・咲かせます
TTITLE8=EPO - DOWN TOWN
TTITLE9=大貫妙子 - 黒のクレール
TTITLE10=大貫妙子 - 夏に恋する女たち
TTITLE11=桑名正博 - セクシャルバイオレットNo.1
TTITLE12=EPO - 土曜の夜はパラダイス
TTITLE13=EPO - う・ふ・ふ・ふ
TTITLE14=吉田美奈子 - 夢で逢えたら
EXTD=YEAR: 1992
EXTT0=
EXTT1=
EXTT2=
EXTT3=
EXTT4=
EXTT5=
EXTT6=
EXTT7=
EXTT8=
EXTT9=
EXTT10=
EXTT11=
EXTT12=
EXTT13=
EXTT14=
PLAYORDER=
